<svg width="512" height="512" viewBox="0 0 512 512" fill="none" xmlns="http://www.w3.org/2000/svg">
<path d="M175.531 512C170.836 512 166.382 509.797 163.531 506L119.832 447.734H46.9996C41.8004 447.734 36.9723 445.039 34.2379 440.617C31.5074 436.195 31.2574 430.676 33.5816 426.023L101.078 291.039C104.785 283.633 113.796 280.629 121.203 284.332L246.855 354.359C254.265 358.066 257.265 367.074 253.562 374.484L188.949 503.711C186.664 508.281 181.757 512 175.531 512Z" fill="#00E162"/>
<path d="M336.203 512C340.898 512 345.351 509.797 348.199 506L391.902 447.734H464.734C469.933 447.734 474.761 445.039 477.492 440.617C480.226 436.195 480.476 430.676 478.148 426.023L410.652 291.039C406.949 283.633 397.937 280.629 390.527 284.332L264.878 354.359C257.468 358.066 254.468 367.074 258.171 374.484L322.785 503.711C325.07 508.281 329.976 512 336.203 512Z" fill="#00B14C"/>
<path d="M255.867 383.469C150.145 383.469 64.1328 297.457 64.1328 191.734C64.1328 86.0117 150.145 0 255.867 0C361.59 0 447.602 86.0117 447.602 191.734C447.602 297.453 361.59 383.469 255.867 383.469Z" fill="#FFAA6D"/>
<path d="M447.602 191.734C447.602 86.0117 361.59 0 255.867 0V383.469C361.59 383.469 447.602 297.457 447.602 191.734Z" fill="#D17948"/>
<path d="M282.844 164.699L316.066 120.398C319.477 115.855 320.023 109.773 317.484 104.691C314.941 99.6094 309.75 96.3984 304.066 96.3984H215.699C207.414 96.3984 200.699 103.117 200.699 111.398C200.699 119.684 207.414 126.398 215.699 126.398H274.066L243.867 166.668C240.457 171.211 239.91 177.293 242.449 182.375C244.992 187.457 250.184 190.668 255.867 190.668H259.898C280.414 190.668 297.102 207.355 297.102 227.883C297.102 248.406 280.406 265.102 259.867 265.102C239.355 265.102 222.668 248.414 222.668 227.898C222.668 219.617 215.949 212.898 207.668 212.898C199.383 212.898 192.668 219.617 192.668 227.898C192.668 264.953 222.812 295.102 259.883 295.102C296.945 295.102 327.102 264.949 327.102 227.867C327.102 198.867 308.633 174.098 282.844 164.699Z" fill="#D17948"/>
<path d="M282.844 164.699L316.066 120.398C319.477 115.855 320.023 109.773 317.484 104.691C314.941 99.6094 309.75 96.3984 304.066 96.3984H255.867V126.398H274.066L255.867 150.668V190.668H259.898C280.414 190.668 297.102 207.355 297.102 227.883C297.102 248.406 280.406 265.102 259.867 265.102C258.516 265.102 257.184 265.023 255.867 264.883V294.973C257.195 295.051 258.535 295.102 259.883 295.102C296.945 295.102 327.102 264.949 327.102 227.867C327.102 198.867 308.633 174.098 282.844 164.699Z" fill="#A44A24"/>
</svg>
