<svg width="69" height="69" viewBox="0 0 69 69" fill="none" xmlns="http://www.w3.org/2000/svg">
<g clip-path="url(#clip0)">
<path d="M23.6557 69.001C23.0229 69.001 22.4228 68.7041 22.0385 68.1924L16.1493 60.3402H6.33406C5.63339 60.3402 4.98272 59.977 4.61422 59.381C4.24625 58.7851 4.21256 58.0413 4.52578 57.4143L13.6219 39.2231C14.1215 38.2249 15.336 37.8201 16.3341 38.3192L33.2677 47.7565C34.2663 48.256 34.6706 49.47 34.1716 50.4686L25.4639 67.8839C25.156 68.4998 24.4948 69.001 23.6557 69.001Z" fill="#3440DB"/>
<path d="M45.3088 69.001C45.9416 69.001 46.5417 68.7041 46.9255 68.1924L52.8152 60.3402H62.6304C63.3311 60.3402 63.9818 59.977 64.3497 59.381C64.7182 58.7851 64.7519 58.0413 64.4382 57.4143L55.342 39.2231C54.843 38.2249 53.6285 37.8201 52.6299 38.3192L35.6968 47.7565C34.6981 48.256 34.2938 49.47 34.7929 50.4686L43.5005 67.8839C43.8085 68.4998 44.4697 69.001 45.3088 69.001Z" fill="#1C259E"/>
<path d="M34.4823 51.6784C20.2345 51.6784 8.64307 40.087 8.64307 25.8392C8.64307 11.5914 20.2345 0 34.4823 0C48.73 0 60.3215 11.5914 60.3215 25.8392C60.3215 40.0865 48.73 51.6784 34.4823 51.6784Z" fill="#FFF36C"/>
<path d="M60.3211 25.8392C60.3211 11.5914 48.7297 0 34.4819 0V51.6784C48.7297 51.6784 60.3211 40.087 60.3211 25.8392Z" fill="#FFCD00"/>
<path d="M36.5038 38.6857C35.3872 38.6857 34.4823 37.7807 34.4823 36.6642V19.9169L31.489 22.9318C30.7025 23.724 29.4228 23.7288 28.6305 22.9418C27.8382 22.1553 27.8335 20.8755 28.62 20.0833L35.0693 13.5877C35.6462 13.0065 36.5164 12.8307 37.2739 13.1428C38.0309 13.455 38.5253 14.1931 38.5253 15.0116V36.6642C38.5253 37.7807 37.6203 38.6857 36.5038 38.6857Z" fill="#FFCD00"/>
<path d="M37.2736 13.1428C36.5161 12.8307 35.6459 13.0065 35.0689 13.5877L34.4819 14.1788V36.6642C34.4819 37.7807 35.3869 38.6857 36.5034 38.6857C37.62 38.6857 38.5249 37.7807 38.5249 36.6642V15.0116C38.5249 14.1931 38.0306 13.455 37.2736 13.1428Z" fill="#BF8400"/>
</g>
<defs>
<clipPath id="clip0">
<rect width="69" height="69" fill="white"/>
</clipPath>
</defs>
</svg>
