<svg width="116" height="116" viewBox="0 0 116 116" fill="none" xmlns="http://www.w3.org/2000/svg">
<path d="M39.7689 115.999C38.7051 115.999 37.6962 115.5 37.0502 114.64L27.1496 101.439H10.6486C9.47062 101.439 8.37675 100.829 7.75724 99.8267C7.13862 98.8249 7.08198 97.5744 7.60856 96.5203L22.9006 65.9379C23.7405 64.2599 25.7822 63.5794 27.4602 64.4184L55.9283 80.2839C57.6072 81.1238 58.2869 83.1646 57.4479 84.8435L42.8089 114.121C42.2912 115.157 41.1796 115.999 39.7689 115.999Z" fill="#00CEFF"/>
<path d="M76.1707 115.999C77.2345 115.999 78.2434 115.5 78.8886 114.64L88.7901 101.439H105.291C106.469 101.439 107.563 100.829 108.182 99.8267C108.801 98.8249 108.858 97.5744 108.33 96.5203L93.0381 65.9379C92.1991 64.2599 90.1574 63.5794 88.4785 64.4184L60.0113 80.2839C58.3325 81.1238 57.6528 83.1646 58.4918 84.8435L73.1307 114.121C73.6484 115.157 74.76 115.999 76.1707 115.999Z" fill="#0092DD"/>
<path d="M57.9701 86.8796C34.0173 86.8796 14.5303 67.3926 14.5303 43.4398C14.5303 19.487 34.0173 0 57.9701 0C81.9229 0 101.41 19.487 101.41 43.4398C101.41 67.3917 81.9229 86.8796 57.9701 86.8796Z" fill="#EFF6FE"/>
<path d="M101.41 43.4398C101.41 19.487 81.9225 0 57.9697 0V86.8796C81.9225 86.8796 101.41 67.3926 101.41 43.4398Z" fill="#D2DCE7"/>
<path d="M68.8905 58.2414H50.6637C51.0885 56.5519 52.1266 55.0598 53.6134 54.0686C55.5737 52.7623 65.6991 46.0123 65.6991 46.0123C69.8259 43.2608 72.2889 38.6579 72.2889 33.6948C72.1464 25.9102 65.7956 19.6426 57.9774 19.6426C50.1584 19.6426 43.8075 25.9102 43.665 33.6948C43.665 35.5719 45.1864 37.0932 47.0635 37.0932C48.9406 37.0932 50.4619 35.5719 50.4619 33.6948C50.6026 29.6644 53.9126 26.4395 57.9774 26.4395C62.0414 26.4395 65.3513 29.6644 65.492 33.6948C65.492 36.3763 64.1601 38.8694 61.9299 40.3562C61.9299 40.3562 51.8054 47.1062 49.8433 48.4125C45.9661 50.9985 43.6509 55.3235 43.6509 59.9813V61.6398C43.6509 63.5169 45.1731 65.0383 47.0493 65.0383H68.8905C70.7676 65.0383 72.2889 63.5169 72.2889 61.6398C72.2889 59.7627 70.7676 58.2414 68.8905 58.2414Z" fill="#D2DCE7"/>
<path d="M57.9753 19.6426C57.9736 19.6426 57.9709 19.6426 57.9691 19.6426V26.4395H57.9753C62.0402 26.4395 65.3501 29.6644 65.4908 33.6948C65.4908 36.3763 64.1589 38.8694 61.9287 40.3562C61.9287 40.3562 60.1657 41.5315 57.9683 42.9962V51.1649C61.4853 48.8205 65.6979 46.0123 65.6979 46.0123C69.8239 43.2608 72.2877 38.6579 72.2877 33.6948C72.1452 25.9102 65.7944 19.6426 57.9753 19.6426Z" fill="#A1AEBC"/>
<path d="M72.2868 61.6396C72.2868 59.7625 70.7655 58.2412 68.8884 58.2412H57.9683V65.0381H68.8884C70.7655 65.0381 72.2868 63.5168 72.2868 61.6396Z" fill="#A1AEBC"/>
</svg>
